<svg xmlns="http://www.w3.org/2000/svg" width="90" height="108" viewBox="0 0 90 108">
    <g fill="none" fill-rule="evenodd">
        <g>
            <g>
                <g fill="#FFF">
                    <path d="M18.629 58.919v2.452h38.877v-2.452H18.629zM18.629 68.506v2.452h33.422c.825-.883 1.712-1.703 2.663-2.452H18.629z" transform="translate(-635 -126) translate(635 126)"/>
                    <path d="M.02.241v100.637h49.998c-.56-.788-1.086-1.6-1.549-2.455H2.475V2.696h71.182v61.112c.834.152 1.654.342 2.455.58V.24H.02z" transform="translate(-635 -126) translate(635 126)"/>
                    <path d="M18.629 78.092v2.452h27.95c.242-.837.52-1.657.85-2.452h-28.8z" transform="translate(-635 -126) translate(635 126)"/>
                    <path fill-rule="nonzero" d="M48.778 87.16c0 11.362 9.237 20.6 20.6 20.6 11.362 0 20.602-9.238 20.602-20.6 0-11.363-9.24-20.603-20.602-20.603-11.363 0-20.6 9.24-20.6 20.602zM38.066 20.532l-13.91 6.958V44.87l13.91 6.958 13.91-6.958V27.49l-13.91-6.958zm0 2.745l11.458 5.73v14.345l-11.458 5.73-11.457-5.73V29.008l11.457-5.731zm0 3.6l-4.398 2.2v4.689l4.398 2.2c1.466-.735 2.933-1.467 4.399-2.2v-4.689l-4.399-2.2zm0 2.744l1.944.974v1.654l-1.944.973-1.944-.973v-1.654l1.944-.974zm-7.57 6.559v5.518l7.57 3.785 7.57-3.785V36.18h-2.454v4l-5.116 2.558-5.115-2.558v-4h-2.454z" transform="translate(-635 -126) translate(635 126)"/>
                </g>
                <g fill="#FF3D71">
                    <path d="M9 0H12V20H9z" transform="translate(-635 -126) translate(635 126) rotate(45 -52.947 119.72)"/>
                    <path d="M9 0H12V20H9z" transform="translate(-635 -126) translate(635 126) rotate(45 -52.947 119.72) rotate(90 10.5 10)"/>
                </g>
            </g>
        </g>
    </g>
</svg>
