<svg xmlns="http://www.w3.org/2000/svg" width="90" height="108" viewBox="0 0 90 108">
    <g fill="none" fill-rule="evenodd">
        <g>
            <g>
                <g fill="#FFF">
                    <path d="M.02.241v100.637h49.998c-.56-.788-1.086-1.6-1.549-2.455H2.475V2.696h71.182v61.112c.834.152 1.654.342 2.455.58V.24H.02z" transform="translate(-1035 -126) translate(1035 126)"/>
                    <path fill-rule="nonzero" d="M48.778 87.16c0 11.362 9.237 20.6 20.6 20.6 11.362 0 20.602-9.238 20.602-20.6 0-11.363-9.24-20.603-20.602-20.603-11.363 0-20.6 9.24-20.6 20.602z" transform="translate(-1035 -126) translate(1035 126)"/>
                </g>
                <g fill="#FF3D71">
                    <path d="M9 0H12V20H9z" transform="translate(-1035 -126) translate(1035 126) rotate(45 -52.947 119.72)"/>
                    <path d="M9 0H12V20H9z" transform="translate(-1035 -126) translate(1035 126) rotate(45 -52.947 119.72) rotate(90 10.5 10)"/>
                </g>
                <g fill="#FFF" fill-rule="nonzero">
                    <path d="M37.646 17.554C33.926 5.742 28.112 0 19.873 0 11.582 0 5.601 5.91 2.097 17.567c-1.915 6.369-3.638 13.56.18 18.294 2.56 3.174 8.858 5.069 16.85 5.07 6.132 0 14.596-1.308 18.27-4.99 4.59-4.6 2.08-12.568.249-18.387zm-1.672 16.96c-2.626 2.631-9.396 4.399-16.848 4.399-7.28 0-13.135-1.656-15.283-4.32-3.2-3.968-1.585-10.57.18-16.444C7.243 7.445 12.575 2.018 19.874 2.018c7.246 0 12.431 5.28 15.852 16.144 2.095 6.65 3.69 12.905.25 16.352z" transform="translate(-1035 -126) translate(1035 126) translate(17 20)"/>
                    <path d="M29.242 22.409c-.046.02-4.596 2.004-8.778 2.004-4.17 0-8.73-1.984-8.777-2.004-.434-.192-.94-.043-1.21.356-.12.179-1.175 1.834-1.175 5.142 0 2.918 1.074 4.964 1.12 5.05.247.462.794.656 1.266.449.046-.02 4.606-2.005 8.777-2.005 4.17 0 8.732 1.985 8.778 2.005.127.056.26.082.39.082.355 0 .695-.194.875-.532.046-.085 1.12-2.13 1.12-5.05 0-3.506-1.086-5.028-1.21-5.189-.28-.365-.762-.492-1.176-.308zm-.146 8.736c-1.642-.623-5.19-1.795-8.632-1.795-3.442 0-6.989 1.172-8.63 1.795-.246-.721-.538-1.864-.538-3.238 0-1.528.269-2.609.498-3.253 1.623.619 5.2 1.81 8.67 1.81 3.484 0 7.076-1.2 8.69-1.817.222.615.48 1.672.48 3.26 0 1.374-.292 2.517-.538 3.238zM22.404 18.605h5.425c.557 0 1.008-.467 1.008-1.043 0-.575-.451-1.042-1.008-1.042h-2.91l3.606-3.56c.402-.398.417-1.058.033-1.475-.385-.416-1.022-.431-1.425-.034l-5.426 5.357c-.298.294-.392.746-.24 1.142.154.395.525.655.937.655zM11.163 17.562c0 .576.444 1.043.99 1.043h5.46c.408 0 .774-.262.923-.66.149-.4.051-.853-.247-1.146l-5.46-5.356c-.4-.393-1.027-.37-1.4.051s-.351 1.081.049 1.474l3.62 3.551h-2.944c-.547 0-.991.467-.991 1.043z" transform="translate(-1035 -126) translate(1035 126) translate(17 20)"/>
                </g>
            </g>
        </g>
    </g>
</svg>
