<svg xmlns="http://www.w3.org/2000/svg" width="90" height="108" viewBox="0 0 90 108">
    <g fill="none" fill-rule="evenodd">
        <g>
            <g>
                <g fill="#FFF">
                    <path d="M18.629 13.919v2.452h38.877v-2.452H18.629zM18.629 23.919v2.452h38.877v-2.452H18.629zM18.629 33.919v2.452h22.877v-2.452H18.629z" transform="translate(-235 -126) translate(235 126)"/>
                    <path d="M.02.241v100.637h49.998c-.56-.788-1.086-1.6-1.549-2.455H3.475c-.552 0-1-.448-1-1V3.696c0-.553.448-1 1-1h69.182c.553 0 1 .447 1 1v60.112c.834.152 1.654.342 2.455.58V1.24c0-.552-.448-1-1-1H.02z" transform="translate(-235 -126) translate(235 126)"/>
                    <path fill-rule="nonzero" d="M48.778 87.16c0 11.362 9.237 20.6 20.6 20.6 11.362 0 20.602-9.238 20.602-20.6 0-11.363-9.24-20.603-20.602-20.603-11.363 0-20.6 9.24-20.6 20.602z" transform="translate(-235 -126) translate(235 126)"/>
                </g>
                <g fill="#FF3D71">
                    <path d="M9 0H12V20H9z" transform="translate(-235 -126) translate(235 126) rotate(45 -52.947 119.72)"/>
                    <path d="M9 0H12V20H9z" transform="translate(-235 -126) translate(235 126) rotate(45 -52.947 119.72) rotate(90 10.5 10)"/>
                </g>
                <text fill="#FFF" font-family="Helvetica" font-size="33" transform="translate(-235 -126) translate(235 126)">
                    <tspan x="16" y="70">%</tspan>
                </text>
            </g>
        </g>
    </g>
</svg>
